<svg xmlns="http://www.w3.org/2000/svg" width="680" height="524" viewBox="0 0 680 524">
  <g fill="none" fill-rule="evenodd" transform="translate(1 1)">
    <path fill="#F6D2A2" stroke="#000" stroke-linecap="square" stroke-width="2" d="M390.583,300.253 C391.893,316.414 391.147,327.896 396.099,345.207 C397.382,349.693 413.647,352.396 408.647,364.396 C407.132,367.61 396.218,367.929 388.889,363.951 C383.007,360.758 377.5,354.084 375.98,349.272 C370.647,332.396 370.683,308.454 368.524,303.917 C366.365,299.379 389.652,288.78 390.583,300.253 Z"/>
    <g transform="translate(0 304)">
      <path fill="#FFF" stroke="#000" stroke-linecap="round" stroke-linejoin="round" stroke-width="2" d="M151.284,217.243 C118.095333,202.691 97.2903333,194.085667 88.869,191.427 C80.4483333,188.768333 50.912,175.554 0.26,151.784 C23.5593333,93.738 36.4633333,62.2516667 38.972,57.325 C43.8466667,47.751 49.9703333,28.9406667 57.343,0.894 C121.982333,26.1166667 157.121,40.3586667 162.759,43.62 C168.396333,46.882 186.683667,55.2486667 217.621,68.72 L188.56,137.889 L151.284,217.243 Z"/>
      <path fill="#654EF1" d="M144.215,200.107 C116.203,187.823667 98.643,180.56 91.535,178.316 C84.427,176.072 59.4973333,164.918667 16.746,144.856 C36.4113333,95.8633333 47.3026667,69.2876667 49.42,65.129 C53.534,57.049 58.7026667,41.1726667 64.926,17.5 C119.484,38.7886667 149.142333,50.8093333 153.901,53.562 C158.659,56.3153333 174.094,63.377 200.206,74.747 L175.678,133.128 L144.215,200.107 Z"/>
      <g stroke="#FFF" stroke-linecap="round" stroke-linejoin="round" stroke-width="2" transform="translate(68 32)">
        <path fill="#000" d="M0.646,19.814 L22.334,34.094"/>
        <polyline points="31.67 17.091 .177 64.143 12.55 .551"/>
        <path d="M58.775,89.853 C64.276,80.812 67.068,64.868 68.802,33.596 L40.525,74.302 C43.43,57.692 47.633,38.749 48.001,22.048 C33.759,36.93 25.299,55.486 19.106,70.325"/>
      </g>
      <path fill="#FFF" d="M94.123,182.492 C96.098,173.267 96.658,164.065 84.56,159.307 C76.4946667,156.135667 68.527,159.091667 60.657,168.175"/>
    </g>
    <path stroke="#000" stroke-linecap="square" stroke-width="2" d="M346.1,382.095 C342.001,382.476 338.087,380.054 334.334,380.487 C331.527,380.812 328.81,382.009 326.175,382.373 C323.447,382.75 320.806,382.259 318.242,382.58 C316.193,382.68 314.15,383.685 312.105,383.883 C308.643,384.218 306.127,383.603 302.62,383.812 C299.114,384.021 294.617,385.053 290.992,385.309 C285.987,385.661 270.82,385.704 252.373,386.723 C250.505,386.826 248.603,387.777 246.675,387.886 C243.865,388.046 240.998,387.363 238.098,387.523 C235.988,387.691 233.853,388.703 231.701,388.871 C229.419,389.05 227.119,388.379 224.812,388.547 C221.974,388.753 219.127,389.803 216.29,390.006 C214.565,390.129 212.843,389.405 211.131,389.519 C208.753,389.677 206.393,390.835 204.063,390.989 C200.542,391.222 197.091,390.423 193.756,390.594 C190.277,390.772 186.923,391.956 183.746,392.132 C180.455,392.406 177.355,390.65 174.5,390.849 C170.243,391.146 166.532,392.595 163.557,392.896 C160.581,393.197 158.34,392.35 157.022,392.059 C155.266,391.671 153.025,392.425 150.469,392.33 C146.37,392.177 141.46,391.298 136.438,391.798 C133.737,392.067 131.004,393.52 128.347,394.133 C121.222,395.776 114.646,397.569 110.717,401.059 C100.899,409.778 100.924,422.616 108.315,429.185 C112.468,432.876 117.481,434.168 128.172,435.117 C130.464,435.32 133.016,437.462 135.877,437.542 C138.834,437.832 142.123,437.092 145.801,437.323 C148.849,437.515 152.165,438.669 155.779,438.782 C158.982,438.883 162.419,437.962 166.114,438.018 C168.66,438.057 171.327,439.082 174.124,439.091 C177.539,439.101 180.812,437.339 183.967,437.589 C187.122,437.838 190.16,439.098 193.106,439.154 C195.905,439.207 198.62,438.3 201.274,438.463 C203.783,438.617 206.238,439.6 208.655,439.699 C211.636,439.822 214.562,439.111 217.465,439.252 C219.919,439.372 222.357,440.31 224.8,440.367 C227.008,440.419 229.22,439.613 231.452,439.633 C233.85,439.654 236.271,440.498 238.733,440.471 C241.621,440.512 244.565,439.682 247.597,439.659 C249.863,439.642 252.178,440.441 254.554,440.363 C257.473,440.268 260.868,438.545 263.897,438.373 C266.925,438.2 269.587,438.734 271.039,438.091 C277.043,435.428 304.319,436.495 324.39,437.14 C327.734,437.248 330.879,438.316 333.691,438.316 C340.672,438.316 342.111,437.023 344.349,436.091"/>
    <g stroke="#000" stroke-linecap="round" stroke-linejoin="round" stroke-width="2" transform="translate(217 337)">
      <path fill="#FDDD00" d="M34.523,75.368 C36.297,62.795 42.304,18.259 44.194,9.741 C45.454,4.06233333 49.7106667,3.81266667 56.964,8.992 C55.7026667,21.8286667 54.5546667,31.428 53.52,37.79 C48.403,69.243 50.023,80.712 46.101,81.61 C42.051,82.537 32.75,87.941 34.523,75.368 Z"/>
      <path fill="#555759" d="M15.321,21.025 C34.704,21.025 94.459,22.582 107.738,21.47 C116.590667,20.7286667 119.833333,13.5803333 117.466,0.025 C95.7346667,2.469 79.951,3.80233333 70.115,4.025 C21.48,5.123 4.489,-0.11 2.295,6.025 C0.031,12.358 -4.062,21.025 15.321,21.025 Z"/>
    </g>
    <path fill="#F6D2A2" stroke="#000" stroke-linecap="square" stroke-width="2" d="M438.391,187.095 C447.709,189.821 459.331,192.058 473.228,194.733 C477.106,195.48 484.16,190.26 488.391,191.095 C505.306,194.432 497.027,206.745 485.391,210.095 C463.391,216.428 439.391,205.595 434.391,206.095 C429.391,206.595 427.344,183.862 438.391,187.095 Z"/>
    <g stroke="#000" stroke-width="2" transform="translate(378)">
      <path fill="#6AD7E5" stroke-linecap="round" stroke-linejoin="round" d="M0.08,13.089 C10.732,-3.792 30.097,-3.981 38.94,11.527 C47.782,27.034 33.84,47.174 23.301,47.062"/>
      <path fill="#000" stroke-linecap="square" d="M8.123,19.893 C12.791,12.105 24.184,9.789 27.748,17.336 C31.313,24.883 27.036,29.119 19.336,35.163 C18.477,32.321 16.033,25.247 8.123,19.893 Z"/>
    </g>
    <path fill="#6AD7E5" stroke="#000" stroke-linecap="square" stroke-width="2" d="M301.748,15.39 C328.748,5.39 378.748,3.39 403.748,27.39 C428.748,51.39 446.748,100.39 449.748,113.39 C452.748,126.39 456.353,187.058 447.748,223.39 C438.748,261.39 425.694,283.792 409.748,298.39 C393.962,312.84 377.725,332.277 343.748,342.39 C313.063,351.523 291.748,370.39 284.748,382.39 C281.248,388.39 283.725,398.762 272.748,398.89 C253.748,401.39 253.88,382.558 246.748,372.39 C229.24,347.428 224.748,331.39 223.748,312.39 C223.376,305.328 218.748,283.39 234.748,257.39 C250.748,231.39 262.748,201.39 262.748,181.39 C262.748,161.39 266.45,128.767 255.748,109.39 C235.604,72.917 274.987,25.301 301.748,15.39 Z"/>
    <path stroke="#000" stroke-linecap="round" stroke-linejoin="round" stroke-width="2" d="M368.548,190.683 C371.891,197.895 374.797,225.789 355.158,243.733"/>
    <g stroke="#000" stroke-width="2" transform="translate(232 35)">
      <path fill="#6AD7E5" stroke-linecap="round" stroke-linejoin="round" d="M39.161,3.976 C20.312,-7.056 1.308,6.651 0.434,30.171 C-0.441,53.692 23.252,65.967 33.487,58.27"/>
      <path fill="#000" stroke-linecap="square" d="M34.712,17.288 C26.256,12.021 13.973,17.644 14.269,28.56 C14.564,39.476 20.86,41.092 31.404,42.249 C30.821,38.486 29.668,28.899 34.712,17.288 Z"/>
    </g>
    <g transform="translate(393 40)">
      <path fill="#FFF" stroke="#000" stroke-linecap="square" stroke-width="2" d="M27.81,5.178 C53.475,4.137 59.152,33.789 37.688,49.561 C21.101,61.75 -4.092,38.299 3.552,20.327 C6.748,12.816 16.132,5.652 27.81,5.178 Z"/>
      <path fill="#000" d="M40.546,21.866 C46.735,21.568 48.057,28.862 42.856,32.781 C38.838,35.81 32.801,30.075 34.673,25.636 C35.455,23.781 37.73,22.002 40.546,21.866 Z"/>
      <path fill="#FFF" d="M36.747,24.936 C39.902,24.831 40.624,28.405 37.997,30.286 C35.967,31.739 32.851,28.896 33.776,26.739 C34.163,25.838 35.311,24.983 36.747,24.936 Z"/>
      <path fill="#6AD7E5" stroke="#000" stroke-linecap="round" stroke-linejoin="round" stroke-width="2" d="M43.691,6.294 C38.6596667,1.61 32.6316667,-0.416666667 25.607,0.214 C20.357,0.685 10.68,7.173 5.412,11.968 C1.9,15.1646667 0.144,20.388 0.144,27.638 C12.2553333,28.062 22.792,27.6943333 31.754,26.535 C34.7,26.1543333 41.7243333,24.3153333 52.827,21.018 C52.0603333,14.31 49.015,9.402 43.691,6.294 Z"/>
    </g>
    <g transform="translate(332 46)">
      <path fill="#FFF" stroke="#000" stroke-linecap="square" stroke-width="2" d="M29.159,5.531 C60.181,0.492 71.416,35.089 47.653,57.112 C29.289,74.131 -4.743,49.829 1.913,27.221 C4.694,17.772 15.045,7.824 29.159,5.531 Z"/>
      <path fill="#000" d="M48.531,21.951 C56.005,20.679 58.678,29.201 52.935,34.654 C48.497,38.868 40.325,32.906 41.95,27.325 C42.628,24.992 45.13,22.529 48.531,21.951 Z"/>
      <path fill="#FFF" d="M43.789,24.394 C47.493,23.731 48.797,28.059 45.941,30.844 C43.735,32.997 39.701,29.982 40.518,27.141 C40.859,25.953 42.103,24.695 43.789,24.394 Z"/>
      <path fill="#6AD7E5" stroke="#000" stroke-linecap="round" stroke-linejoin="round" stroke-width="2" d="M52.869,7.359 C46.8343333,2.40566667 39.6043333,0.262333333 31.179,0.929 C24.882,1.428 13.275,8.288 6.956,13.359 C2.74333333,16.739 0.637,22.2623333 0.637,29.929 C15.1636667,30.3776667 27.8016667,29.989 38.551,28.763 C42.085,28.3603333 50.5103333,26.4156667 63.827,22.929 C62.907,15.835 59.2543333,10.645 52.869,7.359 Z"/>
    </g>
    <g stroke="#000" stroke-linecap="square" stroke-width="2" transform="translate(380 94)">
      <path fill="#FFF" d="M38.339,19.468 L43.339,39.468 C43.839,48.968 32.839,50.968 30.339,39.468 C28.8103333,32.4366667 27.8103333,26.77 27.339,22.468 C33.6723333,15.468 37.339,14.468 38.339,19.468 Z"/>
      <path fill="#FFF" d="M28.051,22.468 L33.051,42.468 C33.551,51.968 22.551,53.968 20.051,42.468 C18.5223333,35.4366667 17.5223333,29.77 17.051,25.468 C23.3843333,18.468 27.051,17.468 28.051,22.468 Z"/>
      <path fill="#F6D2A2" d="M8.391,12.095 C1.891,18.595 -4.609,27.095 5.391,32.095 C15.391,37.095 24.891,25.595 28.391,25.095 C31.891,24.595 34.391,25.095 40.391,25.095 C46.391,25.095 49.391,15.595 47.391,12.095 C45.391,8.595 38.391,5.595 32.391,6.095 C26.391,6.595 14.891,5.595 8.391,12.095 Z"/>
      <path fill="#000" d="M12.385,5.095 C18.063,2.595 25.488,-1.905 31.603,1.095 C37.717,4.095 40.775,11.095 31.603,15.095 C22.431,19.095 10.638,20.595 6.27,15.095 C3.92,12.135 6.707,7.595 12.385,5.095 Z"/>
    </g>
    <g transform="translate(452 303)">
      <path fill="#FFF" stroke="#000" stroke-linecap="round" stroke-linejoin="round" stroke-width="2" d="M0.623,71.541 C33.335,55.9456667 53.4496667,45.8313333 60.967,41.198 C68.485,36.5646667 97.796,22.8576667 148.9,0.077 C177.583333,55.6596667 192.968667,86.011 195.056,91.131 C199.112667,101.079 209.340667,118.011667 225.74,141.929 C164.390667,174.343 130.639,191.616667 124.485,193.75 C118.330333,195.882667 100.042667,204.248333 69.622,218.847 L36.29,151.632 L0.623,71.541 Z"/>
      <path fill="#654EF1" d="M18.211,77.398 C45.821,64.2346667 62.7986667,55.698 69.144,51.788 C75.4893333,47.8773333 100.228667,36.308 143.362,17.08 C167.572,63.994 180.558,89.6113333 182.32,93.932 C185.743333,102.328667 194.376,116.620667 208.218,136.808 C156.436667,164.166667 127.948667,178.746333 122.754,180.547 C117.56,182.347 102.124667,189.408 76.448,201.73 L48.315,144.998 L18.211,77.398 Z"/>
      <g stroke="#FFF" stroke-linecap="round" stroke-linejoin="round" stroke-width="2" transform="translate(88 87)">
        <path fill="#000" d="M91.066,29.532 L66.08,36.604"/>
        <polyline points="72.84 54.785 57.834 .192 97.858 51.134"/>
        <path d="M0.065,27.716 C3.309,37.79 13.546,50.328 36.073,72.088 L23.764,24.077 C34.433,37.135 46.016,52.701 58.412,63.9 C56.465,43.394 47.957,24.859 40.779,10.471"/>
      </g>
      <path fill="#FFF" d="M67.421,50.041 C73.11,57.567 79.706,64.009 91.216,57.966 C98.8893333,53.9373333 101.862667,45.976 100.136,34.082"/>
    </g>
    <g fill="#FDDD00" stroke="#000" stroke-linecap="square" stroke-width="2" transform="translate(98 397)">
      <path d="M29.336,29.747 C45.786,29.429 45.601,32.766 63.918,32.375 C79.993,32.032 161.229,26.853 173.582,27.032 C181.817333,27.1506667 202.736,24.9893333 236.338,20.548 L245.303,20.193 C258.290333,14.3416667 258.118667,10.0116667 244.788,7.203 C224.793,2.991 159.344,16.253 137.223,15.461 C124.836,15.017 95.563,15.515 70.363,17.059 C50.56,18.272 33.272,12.513 28.668,12.861 C13.002,14.047 13.458,30.053 29.336,29.747 Z"/>
      <path d="M6.418,30.193 C1.514,29.751 -4.003,8.909 7.644,5.231 C19.291,1.553 26.034,-3.964 30.938,8.296 C35.842,20.556 34.003,25.303 25.421,29.979 C16.839,34.655 11.322,30.635 6.418,30.193 Z"/>
    </g>
    <g stroke="#000" stroke-linecap="round" stroke-linejoin="round" stroke-width="2" transform="translate(342 361)">
      <path fill="#FDDD00" d="M6.948,43.343 C17.44,36.193 49.269,13.387 56.828,9.032 C61.8673333,6.12933333 64.8933333,7.99533333 65.906,14.63 C55.5526667,22.322 47.6766667,27.928 42.278,31.448 C15.584,48.852 8.131,57.681 4.898,55.488 C1.561,53.224 -3.545,50.494 6.948,43.343 Z"/>
      <path fill="#555759" d="M43.723,1.597 C51.575,1.597 75.781,0.259 81.16,1.215 C84.7466667,1.85166667 85.6433333,6.56066667 83.85,15.342 C75.8806667,16.1053333 69.904,16.3916667 65.92,16.201 C46.219,15.257 39.335,19.753 38.447,14.483 C37.53,9.042 35.872,1.597 43.723,1.597 Z"/>
    </g>
    <g fill="#FDDD00" stroke="#000" stroke-linecap="square" stroke-width="2" transform="translate(269 269)">
      <path d="M213.391 5.095C199.099667 17.969 182.057 30.712 162.263 43.324 139.584 57.774 113.293 70.364 83.391 87.095 78.108 90.051 36.804 107.89 15.892 117.32 10.498 119.752 16.461 131.758 14.748 133.006 6.391 139.095-10.125 142.745 9.633 136.92 29.391 131.095 74.614 106.739 87.502 100.917 100.391 95.095 150.391 73.095 164.391 61.095 178.391 49.095 220.391 24.095 223.391 18.095 226.391 12.095 216.391-7.905 213.391 5.095zM55.656 128.867C57.344 123.908 73.483 109.332 88.032 113.488 103.14 117.805 114.42 125.702 106.855 148.293 100.982 165.83 93.158 169.877 72.653 170.146 52.17 170.416 51.339 141.548 55.656 128.867z"/>
      <path d="M231.114,38.577 C219.621,44.662 221.91,48.729 209.13,55.538 C197.914,61.514 144.216,101.424 135.392,105.624 C129.51,108.424667 115.091333,116.872333 92.136,130.967 L85.956,134.444 C79.474,144.212 81.5993333,147.988667 92.332,145.774 C108.431,142.452 150.456,110.152 166.475,103.049 C182.495,95.947 232.365,57.697 239.401,53.304 C249.938,46.726 242.208,32.703 231.114,38.577 Z"/>
      <path d="M85.669,125.238 C88.425,125.827 97.232,133.531 95.928,141.567 C94.575,149.912 91.067,156.437 78.519,153.819 C68.778,151.787 66.122,147.862 64.685,136.923 C63.249,125.995 78.622,123.731 85.669,125.238 Z"/>
    </g>
    <path fill="#FDDD00" stroke="#000" stroke-linecap="round" stroke-linejoin="round" stroke-width="2" d="M298.775,440.872 C308.25,433.614 336.9,410.508 343.792,406.059 C348.386667,403.093 351.442333,404.841333 352.959,411.304 C343.662333,419.088 336.569667,424.769 331.681,428.347 C307.511,446.041 301.089,454.863 297.808,452.8 C294.421,450.671 289.299,448.129 298.775,440.872 Z"/>
    <path fill="#F6D2A2" stroke="#000" stroke-linecap="square" stroke-width="2" d="M282.327,387.952 C283.637,404.113 286.891,407.595 291.843,424.906 C293.126,429.392 307.391,432.095 302.391,444.095 C300.875,447.308 292.962,447.628 285.633,443.649 C279.751,440.456 274.244,433.783 272.724,428.971 C267.391,412.095 262.12,400.153 259.961,395.616 C271.058,401.428 279.725,400.095 282.327,387.952 Z"/>
    <path fill="#555759" stroke="#000" stroke-linecap="round" stroke-linejoin="round" stroke-width="2" d="M276.633,445.095 C285.391,445.095 312.391,443.537 318.391,444.649 C321.904,445.301 323.103,449.608 321.989,457.572 C321.757,459.228 319.417,461.292 317.589,461.453 C310.577,462.07 305.178,462.284 301.391,462.095 C279.416,460.996 271.739,466.229 270.748,460.095 C269.725,453.762 267.875,445.095 276.633,445.095 Z"/>
    <g fill="#FDDD00" stroke="#000" stroke-linecap="square" stroke-width="2" transform="translate(385 196)">
      <path d="M114.562,0.713 C104.229,1.713 94.896,9.713 82.562,15.713 C70.229,21.713 52.229,27.046 38.562,34.713 C24.896,42.379 20.606,42.379 12.084,44.713 C3.562,47.046 -3.413,50.48 3.562,59.713 C9.391,67.428 20.479,59.713 33.021,52.713 C45.562,45.713 70.229,35.713 82.562,30.713 C94.896,25.713 112.562,18.046 117.562,12.713 C122.562,7.379 124.896,-0.287 114.562,0.713 Z"/>
      <path d="M82.629,29.072 C85.727,38.485 119.299,96.01 120.89,99.051 C122.481,102.091 174.738,199.095 175.346,201.445 C175.954,203.794 169.407,220.776 159.231,205.864 C148.938,190.781 129.97,149.293 122.964,136.114 C115.958,122.935 106.078,104.682 98.997,94.502 C94.2763333,87.7146667 84.3883333,69.795 69.333,40.743 C76.131,26.6863333 80.563,22.796 82.629,29.072 Z"/>
      <path d="M175.468 189.007C179.528 189.373 184.095 206.627 174.453 209.671 164.812 212.716 159.23 217.283 155.17 207.134 151.11 196.985 152.632 193.055 159.737 189.184 166.841 185.313 171.409 188.64 175.468 189.007zM61.391 21.178C61.391 13.428 71.561 12.989 75.391 12.095 82.391 13.428 88.921 18.275 89.228 23.095 89.594 28.828 89.391 36.095 77.377 41.095 65.058 45.428 60.773 38.035 63.391 37.095 76.391 32.428 68.725 21.095 61.391 21.178z"/>
    </g>
    <path fill="#F6D2A2" stroke="#000" stroke-linecap="square" stroke-width="2" d="M359.12,209.113 C376.463,218.837 388.481,222.602 403.321,228.512 C419.338,234.89 412.572,244.94 400.581,243.259 C384.211,240.964 356.084,231.062 351.17,230.013 C331.159,225.74 338.526,197.565 359.12,209.113 Z"/>
  </g>
</svg>
